<?xml version="1.0" encoding="iso-8859-1"?>
<!-- Generator: Adobe Illustrator 19.0.0, SVG Export Plug-In . SVG Version: 6.00 Build 0)  -->
<svg version="1.1" id="Layer_1" xmlns="http://www.w3.org/2000/svg" xmlns:xlink="http://www.w3.org/1999/xlink" x="0px" y="0px"
	 viewBox="0 0 512 512" style="enable-background:new 0 0 512 512;" xml:space="preserve">
<g>
	<circle style="fill:#14B0BF;" cx="256" cy="256" r="256"/>
	<path style="fill:#4388B7;" d="M187.628,203.873c-13.03-13.763-31.427-22.395-51.871-22.395c-39.485,0-71.491,32.005-71.491,71.491
		c0,20.449,8.632,38.845,22.395,51.876c0.901,0.952,99.005,99.057,99.958,99.958l0.502,0.548
		c3.072,14.397,10.491,27.146,20.797,36.905c0.901,0.952,68.091,68.116,68.838,68.838c58.363-4.685,111.206-28.877,151.951-66.14
		C427.955,444.175,188.58,204.774,187.628,203.873z"/>
	<path style="fill:#4388B7;" d="M185.518,121.62c0,20.449,8.632,38.845,22.395,51.876c0.901,0.952,98.109,98.232,98.601,98.724
		c3.149,14.131,10.481,26.66,20.634,36.27c0.901,0.952,118.154,118.185,118.948,118.948c37.007-41.011,60.872-94.065,65.137-152.561
		c-0.794-0.829-201.4-201.452-202.353-202.353c-13.03-13.763-31.427-22.395-51.876-22.395
		C217.528,50.13,185.518,82.135,185.518,121.62z"/>
	<circle style="fill:#FFFFFF;" cx="135.752" cy="252.979" r="71.491"/>
	<path style="fill:#D7ECED;" d="M205.814,267.223l-37.156-37.156c-3.476-3.681-8.371-6.011-13.834-6.011
		c-6.584,0-12.385,3.333-15.816,8.407c-0.84,1.239-1.49,2.606-2.017,4.029l-6.472-6.426c-3.476-3.681-8.371-6.011-13.834-6.011
		c-10.532,0-19.072,8.54-19.072,19.072c0,5.268,2.135,10.035,5.586,13.486l0,0l61.629,61.629
		C185.615,308.966,201.185,290.099,205.814,267.223z"/>
	<path style="fill:#FC611F;" d="M173.896,243.128c0-10.532-8.54-19.072-19.072-19.072s-19.072,8.54-19.072,19.072
		c0-10.532-8.54-19.072-19.072-19.072c-10.532,0-19.072,8.54-19.072,19.072c0,5.268,2.135,10.035,5.586,13.486l0,0l9.533,9.533
		l23.02,23.02l23.02-23.02l9.533-9.533C171.761,253.164,173.896,248.397,173.896,243.128z"/>
	<path style="fill:#E64500;" d="M154.824,224.061c-10.532,0-19.072,8.54-19.072,19.072v46.039l23.02-23.02l9.533-9.533
		c3.451-3.451,5.586-8.218,5.586-13.486C173.896,232.596,165.356,224.061,154.824,224.061z"/>
	<circle style="fill:#FFFFFF;" cx="376.269" cy="256.614" r="71.491"/>
	<path style="fill:#D7ECED;" d="M443.868,279.665l-67.62-67.738l0,0l-37.934,44.687l37.934,44.687l0.056-0.061l22.743,22.861
		l0.051-0.061l0.179,0.21C420.203,317.117,436.736,300.59,443.868,279.665z"/>
	<polygon style="fill:#FC611F;" points="376.248,301.302 338.309,256.614 376.248,211.927 414.182,256.614 	"/>
	<polygon style="fill:#E64500;" points="376.248,211.927 376.248,211.927 376.248,301.302 414.182,256.614 	"/>
	<circle style="fill:#FFFFFF;" cx="257.024" cy="390.4" r="71.491"/>
	<path style="fill:#D7ECED;" d="M323.61,416.225l-65.894-65.894l-0.701-0.701l-23.02,23.02l-9.533,9.533
		c-3.451,3.451-5.586,8.218-5.586,13.486c0,5.448,2.309,10.327,5.97,13.804l49.915,49.915l0.138,0.138
		C297.257,453.755,315.351,437.478,323.61,416.225z"/>
	<path style="fill:#2D5872;" d="M289.567,382.182L289.567,382.182l-9.533-9.533l-23.02-23.02l-23.02,23.02l-9.533,9.533
		c-3.451,3.451-5.586,8.218-5.586,13.486c0,10.532,8.54,19.072,19.072,19.072c10.532,0,19.072-8.54,19.072-19.072
		c0,10.532,8.54,19.072,19.072,19.072s19.072-8.54,19.072-19.072C295.153,390.405,293.018,385.633,289.567,382.182z
		 M242.688,424.468h28.641l-14.321-20.065L242.688,424.468z"/>
	<polygon style="fill:#0F303F;" points="257.009,404.408 257.009,424.468 271.329,424.468 	"/>
	<path style="fill:#0F303F;" d="M289.567,382.182L289.567,382.182l-9.533-9.533l-23.02-23.02v46.039
		c0,10.532,8.54,19.072,19.072,19.072s19.072-8.54,19.072-19.072C295.153,390.405,293.018,385.633,289.567,382.182z"/>
	<circle style="fill:#FFFFFF;" cx="257.024" cy="121.62" r="71.491"/>
	<path style="fill:#D7ECED;" d="M326.313,138.88l-0.02-0.02l-55.235-55.235c-3.482-3.681-8.376-6.006-13.839-6.006l-0.21,0.02
		c-10.445,0.118-18.877,8.596-18.877,19.067c0,5.663,2.488,10.706,6.415,14.182l2.268,2.268l0.051,0.051
		c-2.668-1.418-5.683-2.258-8.909-2.258c-10.542,0-19.087,8.545-19.087,19.087c0,5.463,2.324,10.358,6.006,13.839l47.524,47.524
		C298.88,185.59,319.8,165.1,326.313,138.88z"/>
	<path style="fill:#2D5872;" d="M276.306,110.956c-3.999,0-7.706,1.239-10.772,3.343l-0.2-0.369
		c6.467-3.057,10.972-9.59,10.972-17.219c0-10.542-8.545-19.087-19.087-19.087c-10.542,0-19.087,8.545-19.087,19.087
		c0,7.501,4.367,13.926,10.665,17.05l-0.241,0.415c-3.031-2.028-6.671-3.22-10.593-3.22c-10.542,0-19.087,8.545-19.087,19.087
		s8.545,19.087,19.087,19.087c10.542,0,19.087-8.545,19.087-19.087l-0.067-0.686l0.036,0.005l0.282-0.031l-0.072,0.712
		c0,10.542,8.545,19.087,19.087,19.087c10.542,0,19.087-8.545,19.087-19.087C295.398,119.501,286.848,110.956,276.306,110.956z
		 M242.688,161.26h28.641l-14.321-20.065L242.688,161.26z"/>
	<polygon style="fill:#0F303F;" points="257.009,129.69 257.009,130.396 257.044,130.043 	"/>
	<path style="fill:#0F303F;" d="M276.306,110.956c-3.999,0-7.706,1.239-10.772,3.343l-0.2-0.369
		c6.467-3.057,10.972-9.59,10.972-17.219c0-10.542-8.545-19.087-19.087-19.087l-0.21,0.02v51.717l0.282-0.031l-0.072,0.712
		c0,10.542,8.545,19.087,19.087,19.087s19.087-8.545,19.087-19.087C295.398,119.501,286.848,110.956,276.306,110.956z"/>
	<polygon style="fill:#0F303F;" points="257.009,141.199 257.009,161.26 271.329,161.26 	"/>
</g>
<g>
</g>
<g>
</g>
<g>
</g>
<g>
</g>
<g>
</g>
<g>
</g>
<g>
</g>
<g>
</g>
<g>
</g>
<g>
</g>
<g>
</g>
<g>
</g>
<g>
</g>
<g>
</g>
<g>
</g>
</svg>
